<?xml version="1.0" encoding="UTF-8"?>
<svg id="Layer_1" xmlns="http://www.w3.org/2000/svg" version="1.1" viewBox="0 0 1920 1080">
  <!-- Generator: Adobe Illustrator 29.3.1, SVG Export Plug-In . SVG Version: 2.1.0 Build 151)  -->
  <defs>
    <style>
      .st0 {
        fill: #fbfcfd;
      }

      .st1 {
        display: none;
      }
    </style>
  </defs>
  <g class="st1">
    <g>
      <path class="st0" d="M1160,378v32l49-12v21.5l-48.84,15.16-.14,77.81c.69,3.66,6.4,5.38,8.5,8.51l21.46-22.5c28.71-24.67,59.5-47.76,99.86-38.83,15.67,3.47,27.4,12.94,30.15,29.34-8.65-3.52-17.12-7.92-26.23-10.26-19.41-4.99-44.7-3.38-63.12,4.4-36.82,15.55-62.02,53.47-81.16,86.86-5.86-4.39-10.38-9.31-16.81-13.17-7.31-4.38-16.3-8.14-24.67-9.84,4.7-4.91,15.15-10.14,15.78-17.72.17-2.05-.85-4.32-.84-6.72.19-26.33-.04-52.67.07-79-.27-2.13-13.86,3.29-16.01,2.46v-17c23.05-3.7,30.3-25.12,31.12-45.87l21.88-5.13Z"/>
      <path class="st0" d="M971,583l20.99-6c1.59,11.28-1.04,8.89-7.01,14.49-11.19,10.48-20.03,23.8-28.49,36.51-4.27-3.89-15.85-23.85-19.53-25.53-3.34-1.53-11.91,6.89-14.48,9.53-7.56,7.76-15.04,18.68-20.51,28.01-.8.18-1.32-.18-1.98-.48-1.16-.53-17.78-12.62-18.54-13.47-.7-.79-1.45-1.37-1.44-2.56l.14-105.32c21.93-12.49,42.85-29.43,57.37-50.16,12.96,11.11,28.95,18.81,46.46,15-.31,6.62-3.76,15.37-9.05,19.46-1.39,1.07-3.94,1.33-3.94,1.54v79ZM937,512c-3.1-.15-6.3.31-9.39-.11-7.25-.98-10.64-6.09-16.09,2.13l-.31,76.28c.43,1.48,6.82,6.58,8.24,6.66,3.69.2,12.74-5.55,17.55-4.95v-80Z"/>
      <path class="st0" d="M1082.99,505l-17.48-27.98-8.29,9.7-.27,67.84c-.37,1.91,3.28,6.01,4.7,6.29,3.68.72,24.46-24.16,29.99-26.78,1.32-.24,6.53,5.04,6.3,6.3-16.35,19.17-35.31,36.52-48.05,58.52-2.1,1.23-17.18-10.73-20.58-12.69-7.64-4.41-16.63-8.38-25.3-10.21,4.96-5.27,14.68-8.41,15.93-16.55,3.17-20.48-2.19-48.58.01-69.88l-4.45-7.53c-1.96,1.67-13.05,12.72-14.14,12.91-1.33.23-6.51-5.02-6.28-6.28l41.89-52.17,2.49.56,18.02,28.96,28.03-37.98,1.95,1.02,20.48,39.49-24.97,36.49Z"/>
      <path class="st0" d="M1242.02,540.99c-.85-.6-8.26-15.98-9.86-18.34l12.34-16.63c1.63,3.13,10.7,16.97,10.29,19.31-.15.85-8.69,12.99-9.78,14.18-.69.75-1.95,2.21-2.99,1.48Z"/>
      <path class="st0" d="M1276.98,530.99c-1.51.37-1.6-.23-2.42-1.05-1.06-1.06-9.57-15.52-9.55-16.47l11.5-16.47c1.35-.34,1.75.83,2.35,1.64,1.37,1.88,8.07,14.3,8.16,15.95.22,4.23-8.85,11.8-10.03,16.4Z"/>
      <path class="st0" d="M1211.02,517.01c1.24-.88,2.23.85,2.83,1.65,1.66,2.21,8.29,14.62,8.15,16.78s-2.4,4.68-3.59,6.48c-.98,1.48-6.86,9.34-7.9,9.09s-9.25-15.16-10.5-17.52l11.01-16.47Z"/>
      <g>
        <path class="st0" d="M697.99,631.99c-6.71-.56-10.56-7.13-16.62-9.87-17.47-7.89-44.69.64-47.26,21.48-4.27,34.52,30.13,44.96,58.09,39.09,49.76-10.44,71.34-77.72,16.06-99.47-17.47-6.87-34.4-4-52.26-8.74s-43.61-21.03-41.99-41.98c1.02-13.18,16.42-49.23,22.81-62.19,8.47-17.18,15.72-9.96,31.68-9.34,21.59.85,46.3-2.12,66.16-10.82,4.72-2.07,25.64-15.67,27.67-15.09,4.59,1.31,1.22,12.74.37,16.12-6.25,24.87-29.56,43.79-55.23,45.77-22.97,1.77-59.2-18.71-67.8,16.2-1.93,7.83-.92,10.69,5.62,15.01,20.4,13.47,57.17,7.28,81.92,11.08,82.33,12.65,54.12,105.81,4.91,140.35-28.21,19.8-58.99,27.4-93.17,20.9-57.9-11-50.69-106.07,21.52-99.52,14.99,1.36,37.58,14.13,37.51,30.98Z"/>
        <path class="st0" d="M838,466v32l35-8v22l-35.05,10.66.25,79.63c.4,1.37,7.55,7.39,8.28,7.45,2.45.21,13.11-11.78,16.2-12.62,2.55-.7,5.71,4.1,4.86,5.84-14.53,17.57-28.87,35.98-39.57,56.04-1.52.41-1.66-.41-2.5-.98-3.43-2.35-6.95-6.92-11.17-9.83-5.32-3.67-11.79-6.8-17.79-9.21-2.03-.82-10.15-2.59-10.53-2.98-.44-.47-.08-1.38.64-2.07,2.85-2.72,14.36-8.79,14.36-13.42v-89.5l-16,4v-16.5c14.33-5.02,23.16-11.93,28.76-26.24,1.54-3.94,5.21-21.15,6.66-22.34,2.51-2.08,13.85-3.19,17.58-3.92Z"/>
      </g>
    </g>
  </g>
  <path class="st0" d="M960,273.93c-146.95,0-266.07,119.12-266.07,266.07s119.12,266.07,266.07,266.07,266.07-119.12,266.07-266.07-119.12-266.07-266.07-266.07ZM879.79,683.99h-59.42v-192.13h59.42v192.13ZM850.31,465.47c-19.18,0-34.73-15.55-34.73-34.73s15.55-34.73,34.73-34.73,34.73,15.55,34.73,34.73-15.55,34.73-34.73,34.73ZM1104.4,683.99h-59.82l.02-102.81c-.93-24.04-6.97-43.54-35.09-41.8-23.62,1.47-31.04,20.03-32.28,41l.02,103.61h-59.42v-192.13h57.04v26.15c1.69.3,1.85-1.61,2.61-2.74,17.31-26.09,47.59-32.33,77.09-26.05,41.81,8.9,48.8,46.1,49.86,83.24l-.02,111.53Z"/>
</svg>